<mxfile host="app.diagrams.net" modified="2024-04-22T12:22:02.494Z" agent="Mozilla/5.0 (Windows NT 10.0; Win64; x64) AppleWebKit/537.36 (KHTML, like Gecko) Chrome/124.0.0.0 Safari/537.36" etag="6ktzf2g1ufBFTFReXFla" version="24.2.7" type="device">
  <diagram id="SpL5eooDf6qy1RjsirI7" name="Page-1">
    <mxGraphModel dx="1209" dy="1630" grid="1" gridSize="10" guides="1" tooltips="1" connect="1" arrows="1" fold="1" page="1" pageScale="1" pageWidth="850" pageHeight="1100" math="0" shadow="0">
      <root>
        <mxCell id="0" />
        <mxCell id="1" parent="0" />
        <mxCell id="JcAfhX5hEeZjc4lIiqUr-1" value="&lt;b&gt;Quickfix Helper System&lt;/b&gt;" style="ellipse;whiteSpace=wrap;html=1;fillColor=#f5f5f5;strokeColor=#666666;fontColor=#333333;" parent="1" vertex="1">
          <mxGeometry x="340" y="210" width="190" height="100" as="geometry" />
        </mxCell>
        <mxCell id="JcAfhX5hEeZjc4lIiqUr-2" value="&lt;b&gt;CUSTOMER&lt;/b&gt;" style="rounded=0;whiteSpace=wrap;html=1;fillColor=#f5f5f5;strokeColor=#666666;fontColor=#333333;" parent="1" vertex="1">
          <mxGeometry x="480" y="440" width="160" height="60" as="geometry" />
        </mxCell>
        <mxCell id="JcAfhX5hEeZjc4lIiqUr-3" value="&lt;b&gt;ADMIN&lt;/b&gt;" style="rounded=0;whiteSpace=wrap;html=1;fillColor=#f5f5f5;strokeColor=#666666;fontColor=#333333;" parent="1" vertex="1">
          <mxGeometry x="270" width="298.43" height="60" as="geometry" />
        </mxCell>
        <mxCell id="JcAfhX5hEeZjc4lIiqUr-4" value="" style="endArrow=classic;html=1;rounded=0;exitX=1;exitY=0.5;exitDx=0;exitDy=0;entryX=1;entryY=0.5;entryDx=0;entryDy=0;" parent="1" source="JcAfhX5hEeZjc4lIiqUr-1" target="JcAfhX5hEeZjc4lIiqUr-2" edge="1">
          <mxGeometry width="50" height="50" relative="1" as="geometry">
            <mxPoint x="400" y="310" as="sourcePoint" />
            <mxPoint x="560" y="490" as="targetPoint" />
            <Array as="points">
              <mxPoint x="680" y="260" />
              <mxPoint x="680" y="470" />
            </Array>
          </mxGeometry>
        </mxCell>
        <mxCell id="tuyYX0-SlInAl1GrdSbn-25" value="response" style="edgeLabel;html=1;align=center;verticalAlign=middle;resizable=0;points=[];" vertex="1" connectable="0" parent="JcAfhX5hEeZjc4lIiqUr-4">
          <mxGeometry x="0.2741" y="2" relative="1" as="geometry">
            <mxPoint as="offset" />
          </mxGeometry>
        </mxCell>
        <mxCell id="JcAfhX5hEeZjc4lIiqUr-8" value="" style="endArrow=classic;html=1;rounded=0;entryX=0.742;entryY=0.06;entryDx=0;entryDy=0;entryPerimeter=0;exitX=0.81;exitY=0.983;exitDx=0;exitDy=0;exitPerimeter=0;" parent="1" source="JcAfhX5hEeZjc4lIiqUr-3" target="JcAfhX5hEeZjc4lIiqUr-1" edge="1">
          <mxGeometry width="50" height="50" relative="1" as="geometry">
            <mxPoint x="501" y="60" as="sourcePoint" />
            <mxPoint x="458.94000000000005" y="206" as="targetPoint" />
            <Array as="points" />
          </mxGeometry>
        </mxCell>
        <mxCell id="JcAfhX5hEeZjc4lIiqUr-17" value="&lt;b&gt;&lt;font style=&quot;font-size: 18px&quot;&gt;Context&amp;nbsp; Level DFD&lt;/font&gt;&lt;/b&gt;" style="text;html=1;align=center;verticalAlign=middle;whiteSpace=wrap;rounded=0;fillColor=#f5f5f5;strokeColor=#666666;fontColor=#333333;" parent="1" vertex="1">
          <mxGeometry x="120" y="-40" width="600" height="30" as="geometry" />
        </mxCell>
        <mxCell id="JcAfhX5hEeZjc4lIiqUr-18" value="" style="endArrow=classic;html=1;rounded=0;exitX=1;exitY=0;exitDx=0;exitDy=0;entryX=0.632;entryY=0.02;entryDx=0;entryDy=0;entryPerimeter=0;" parent="1" source="JcAfhX5hEeZjc4lIiqUr-22" target="JcAfhX5hEeZjc4lIiqUr-1" edge="1">
          <mxGeometry width="50" height="50" relative="1" as="geometry">
            <mxPoint x="200" y="250" as="sourcePoint" />
            <mxPoint x="450" y="210" as="targetPoint" />
            <Array as="points" />
          </mxGeometry>
        </mxCell>
        <mxCell id="JcAfhX5hEeZjc4lIiqUr-21" value="" style="endArrow=classic;html=1;rounded=0;" parent="1" edge="1">
          <mxGeometry width="50" height="50" relative="1" as="geometry">
            <mxPoint x="540" y="60" as="sourcePoint" />
            <mxPoint x="500" y="220" as="targetPoint" />
            <Array as="points" />
          </mxGeometry>
        </mxCell>
        <mxCell id="JcAfhX5hEeZjc4lIiqUr-22" value="Add ticker remarks" style="text;html=1;strokeColor=none;fillColor=none;align=center;verticalAlign=middle;whiteSpace=wrap;rounded=0;rotation=-80;" parent="1" vertex="1">
          <mxGeometry x="421.43" y="117" width="129" height="34" as="geometry" />
        </mxCell>
        <mxCell id="JcAfhX5hEeZjc4lIiqUr-28" value="Resolve Ticket" style="text;html=1;strokeColor=none;fillColor=none;align=center;verticalAlign=middle;whiteSpace=wrap;rounded=0;rotation=-80;" parent="1" vertex="1">
          <mxGeometry x="393.57" y="115" width="133.43" height="30" as="geometry" />
        </mxCell>
        <mxCell id="JcAfhX5hEeZjc4lIiqUr-29" value="" style="endArrow=classic;html=1;rounded=0;entryX=0.5;entryY=0;entryDx=0;entryDy=0;" parent="1" edge="1">
          <mxGeometry width="50" height="50" relative="1" as="geometry">
            <mxPoint x="440" y="60" as="sourcePoint" />
            <mxPoint x="445" y="210" as="targetPoint" />
            <Array as="points" />
          </mxGeometry>
        </mxCell>
        <mxCell id="JcAfhX5hEeZjc4lIiqUr-30" value="manage payments" style="text;html=1;strokeColor=none;fillColor=none;align=center;verticalAlign=middle;whiteSpace=wrap;rounded=0;rotation=-95;" parent="1" vertex="1">
          <mxGeometry x="365" y="115" width="133.43" height="30" as="geometry" />
        </mxCell>
        <mxCell id="JcAfhX5hEeZjc4lIiqUr-34" value="manage FAQs" style="text;html=1;strokeColor=none;fillColor=none;align=center;verticalAlign=middle;whiteSpace=wrap;rounded=0;rotation=-100;" parent="1" vertex="1">
          <mxGeometry x="334" y="119" width="133.43" height="30" as="geometry" />
        </mxCell>
        <mxCell id="JcAfhX5hEeZjc4lIiqUr-35" value="" style="endArrow=classic;html=1;rounded=0;exitX=1;exitY=1;exitDx=0;exitDy=0;entryX=0.332;entryY=0.02;entryDx=0;entryDy=0;entryPerimeter=0;" parent="1" source="JcAfhX5hEeZjc4lIiqUr-36" target="JcAfhX5hEeZjc4lIiqUr-1" edge="1">
          <mxGeometry width="50" height="50" relative="1" as="geometry">
            <mxPoint x="337" y="20.5" as="sourcePoint" />
            <mxPoint x="306.04999999999995" y="249.5" as="targetPoint" />
            <Array as="points" />
          </mxGeometry>
        </mxCell>
        <mxCell id="JcAfhX5hEeZjc4lIiqUr-36" value="assign tickets" style="text;html=1;strokeColor=none;fillColor=none;align=center;verticalAlign=middle;whiteSpace=wrap;rounded=0;rotation=-105;" parent="1" vertex="1">
          <mxGeometry x="311.82" y="110.22" width="120.43" height="30" as="geometry" />
        </mxCell>
        <mxCell id="JcAfhX5hEeZjc4lIiqUr-39" value="" style="endArrow=classic;html=1;rounded=0;entryX=0.384;entryY=-0.01;entryDx=0;entryDy=0;entryPerimeter=0;exitX=0.125;exitY=1;exitDx=0;exitDy=0;exitPerimeter=0;" parent="1" edge="1">
          <mxGeometry width="50" height="50" relative="1" as="geometry">
            <mxPoint x="405" y="60" as="sourcePoint" />
            <mxPoint x="427.96000000000004" y="209" as="targetPoint" />
            <Array as="points" />
          </mxGeometry>
        </mxCell>
        <mxCell id="JcAfhX5hEeZjc4lIiqUr-41" value="" style="endArrow=classic;html=1;rounded=0;fontSize=12;exitX=0.024;exitY=0.334;exitDx=0;exitDy=0;exitPerimeter=0;entryX=0;entryY=0.5;entryDx=0;entryDy=0;" parent="1" source="JcAfhX5hEeZjc4lIiqUr-1" target="tuyYX0-SlInAl1GrdSbn-1" edge="1">
          <mxGeometry width="50" height="50" relative="1" as="geometry">
            <mxPoint x="320" y="250" as="sourcePoint" />
            <mxPoint x="270" y="20" as="targetPoint" />
            <Array as="points">
              <mxPoint x="280" y="243" />
              <mxPoint x="190" y="243" />
              <mxPoint x="190" y="470" />
            </Array>
          </mxGeometry>
        </mxCell>
        <mxCell id="tuyYX0-SlInAl1GrdSbn-10" value="resonse" style="edgeLabel;html=1;align=center;verticalAlign=middle;resizable=0;points=[];" vertex="1" connectable="0" parent="JcAfhX5hEeZjc4lIiqUr-41">
          <mxGeometry x="-0.5629" y="4" relative="1" as="geometry">
            <mxPoint x="-53" y="93" as="offset" />
          </mxGeometry>
        </mxCell>
        <mxCell id="JcAfhX5hEeZjc4lIiqUr-43" value="" style="endArrow=classic;html=1;rounded=0;fontSize=12;entryX=1;entryY=0.5;entryDx=0;entryDy=0;exitX=1;exitY=0.42;exitDx=0;exitDy=0;exitPerimeter=0;" parent="1" source="JcAfhX5hEeZjc4lIiqUr-1" target="JcAfhX5hEeZjc4lIiqUr-3" edge="1">
          <mxGeometry width="50" height="50" relative="1" as="geometry">
            <mxPoint x="630" y="250" as="sourcePoint" />
            <mxPoint x="640" y="30" as="targetPoint" />
            <Array as="points">
              <mxPoint x="600" y="252" />
              <mxPoint x="600" y="30" />
            </Array>
          </mxGeometry>
        </mxCell>
        <mxCell id="JcAfhX5hEeZjc4lIiqUr-44" value="respond" style="text;html=1;strokeColor=none;fillColor=none;align=center;verticalAlign=middle;whiteSpace=wrap;rounded=0;fontSize=12;rotation=-90;" parent="1" vertex="1">
          <mxGeometry x="560.0000000000001" y="121" width="60" height="30" as="geometry" />
        </mxCell>
        <mxCell id="JcAfhX5hEeZjc4lIiqUr-46" value="" style="endArrow=classic;html=1;rounded=0;fontSize=12;entryX=0.985;entryY=0.661;entryDx=0;entryDy=0;entryPerimeter=0;exitX=0.857;exitY=-0.02;exitDx=0;exitDy=0;exitPerimeter=0;" parent="1" source="JcAfhX5hEeZjc4lIiqUr-2" target="JcAfhX5hEeZjc4lIiqUr-1" edge="1">
          <mxGeometry width="50" height="50" relative="1" as="geometry">
            <mxPoint x="400" y="360" as="sourcePoint" />
            <mxPoint x="450" y="310" as="targetPoint" />
            <Array as="points">
              <mxPoint x="620" y="276" />
            </Array>
          </mxGeometry>
        </mxCell>
        <mxCell id="tuyYX0-SlInAl1GrdSbn-6" value="login&amp;nbsp;&lt;div&gt;and&lt;/div&gt;&lt;div&gt;register&lt;/div&gt;" style="edgeLabel;html=1;align=center;verticalAlign=middle;resizable=0;points=[];" vertex="1" connectable="0" parent="JcAfhX5hEeZjc4lIiqUr-46">
          <mxGeometry x="-0.2779" y="3" relative="1" as="geometry">
            <mxPoint as="offset" />
          </mxGeometry>
        </mxCell>
        <mxCell id="JcAfhX5hEeZjc4lIiqUr-48" value="" style="endArrow=classic;html=1;rounded=0;fontSize=12;entryX=1;entryY=1;entryDx=0;entryDy=0;exitX=0.681;exitY=-0.035;exitDx=0;exitDy=0;exitPerimeter=0;" parent="1" source="JcAfhX5hEeZjc4lIiqUr-2" target="JcAfhX5hEeZjc4lIiqUr-1" edge="1">
          <mxGeometry width="50" height="50" relative="1" as="geometry">
            <mxPoint x="650" y="440" as="sourcePoint" />
            <mxPoint x="450" y="300" as="targetPoint" />
            <Array as="points">
              <mxPoint x="590" y="295" />
            </Array>
          </mxGeometry>
        </mxCell>
        <mxCell id="tuyYX0-SlInAl1GrdSbn-4" value="track&lt;div&gt;ticker&lt;/div&gt;" style="edgeLabel;html=1;align=center;verticalAlign=middle;resizable=0;points=[];" vertex="1" connectable="0" parent="JcAfhX5hEeZjc4lIiqUr-48">
          <mxGeometry x="-0.1211" y="-2" relative="1" as="geometry">
            <mxPoint x="-2" y="53" as="offset" />
          </mxGeometry>
        </mxCell>
        <mxCell id="JcAfhX5hEeZjc4lIiqUr-53" value="" style="endArrow=classic;html=1;rounded=0;fontSize=12;entryX=0.732;entryY=0.97;entryDx=0;entryDy=0;entryPerimeter=0;exitX=0.437;exitY=-0.004;exitDx=0;exitDy=0;exitPerimeter=0;" parent="1" source="JcAfhX5hEeZjc4lIiqUr-2" edge="1" target="JcAfhX5hEeZjc4lIiqUr-1">
          <mxGeometry width="50" height="50" relative="1" as="geometry">
            <mxPoint x="468" y="450" as="sourcePoint" />
            <mxPoint x="438.93000000000006" y="310" as="targetPoint" />
            <Array as="points">
              <mxPoint x="550" y="320" />
              <mxPoint x="479" y="320" />
            </Array>
          </mxGeometry>
        </mxCell>
        <mxCell id="tuyYX0-SlInAl1GrdSbn-5" value="submit a&lt;div&gt;ticker&lt;/div&gt;" style="edgeLabel;html=1;align=center;verticalAlign=middle;resizable=0;points=[];" vertex="1" connectable="0" parent="JcAfhX5hEeZjc4lIiqUr-53">
          <mxGeometry x="0.1158" y="-1" relative="1" as="geometry">
            <mxPoint x="-1" y="28" as="offset" />
          </mxGeometry>
        </mxCell>
        <mxCell id="JcAfhX5hEeZjc4lIiqUr-55" value="" style="endArrow=classic;html=1;rounded=0;fontSize=12;exitX=0.219;exitY=0;exitDx=0;exitDy=0;exitPerimeter=0;" parent="1" source="JcAfhX5hEeZjc4lIiqUr-2" target="JcAfhX5hEeZjc4lIiqUr-1" edge="1">
          <mxGeometry width="50" height="50" relative="1" as="geometry">
            <mxPoint x="515" y="430" as="sourcePoint" />
            <mxPoint x="398.93000000000006" y="309.66" as="targetPoint" />
            <Array as="points">
              <mxPoint x="515" y="340" />
              <mxPoint x="435" y="340" />
            </Array>
          </mxGeometry>
        </mxCell>
        <mxCell id="tuyYX0-SlInAl1GrdSbn-7" value="view FAQs" style="edgeLabel;html=1;align=center;verticalAlign=middle;resizable=0;points=[];" vertex="1" connectable="0" parent="JcAfhX5hEeZjc4lIiqUr-55">
          <mxGeometry x="-0.0644" y="-1" relative="1" as="geometry">
            <mxPoint x="-37" y="1" as="offset" />
          </mxGeometry>
        </mxCell>
        <mxCell id="yGNib3yo4NKwyIXRavz_-1" value="" style="endArrow=classic;html=1;rounded=0;exitX=0.182;exitY=0.983;exitDx=0;exitDy=0;entryX=0.189;entryY=0.1;entryDx=0;entryDy=0;entryPerimeter=0;exitPerimeter=0;" parent="1" edge="1">
          <mxGeometry width="50" height="50" relative="1" as="geometry">
            <mxPoint x="342.04026" y="58.98000000000002" as="sourcePoint" />
            <mxPoint x="387.9100000000001" y="220" as="targetPoint" />
            <Array as="points" />
          </mxGeometry>
        </mxCell>
        <mxCell id="yGNib3yo4NKwyIXRavz_-2" value="manage users" style="text;html=1;strokeColor=none;fillColor=none;align=center;verticalAlign=middle;whiteSpace=wrap;rounded=0;rotation=-105;" parent="1" vertex="1">
          <mxGeometry x="287.57" y="126.5" width="133.43" height="30" as="geometry" />
        </mxCell>
        <mxCell id="H_6O0LIzQZU6zks429Cd-3" value="login" style="text;html=1;strokeColor=none;fillColor=none;align=center;verticalAlign=middle;whiteSpace=wrap;rounded=0;rotation=-75;" parent="1" vertex="1">
          <mxGeometry x="447.43" y="117" width="129" height="34" as="geometry" />
        </mxCell>
        <mxCell id="H_6O0LIzQZU6zks429Cd-5" value="" style="endArrow=classic;html=1;rounded=0;exitX=0.096;exitY=1.033;exitDx=0;exitDy=0;entryX=0.084;entryY=0.19;entryDx=0;entryDy=0;entryPerimeter=0;exitPerimeter=0;" parent="1" edge="1">
          <mxGeometry width="50" height="50" relative="1" as="geometry">
            <mxPoint x="315.97728000000006" y="61.98000000000002" as="sourcePoint" />
            <mxPoint x="366.96000000000004" y="229" as="targetPoint" />
            <Array as="points" />
          </mxGeometry>
        </mxCell>
        <mxCell id="H_6O0LIzQZU6zks429Cd-6" value="manage tickers" style="text;html=1;strokeColor=none;fillColor=none;align=center;verticalAlign=middle;whiteSpace=wrap;rounded=0;rotation=-110;" parent="1" vertex="1">
          <mxGeometry x="264" y="139" width="133.43" height="30" as="geometry" />
        </mxCell>
        <mxCell id="H_6O0LIzQZU6zks429Cd-8" value="" style="endArrow=classic;html=1;rounded=0;entryX=0.047;entryY=0.27;entryDx=0;entryDy=0;entryPerimeter=0;exitX=0.031;exitY=1.05;exitDx=0;exitDy=0;exitPerimeter=0;" parent="1" source="JcAfhX5hEeZjc4lIiqUr-3" target="JcAfhX5hEeZjc4lIiqUr-1" edge="1">
          <mxGeometry width="50" height="50" relative="1" as="geometry">
            <mxPoint x="300" y="80" as="sourcePoint" />
            <mxPoint x="376.96000000000004" y="239" as="targetPoint" />
            <Array as="points" />
          </mxGeometry>
        </mxCell>
        <mxCell id="H_6O0LIzQZU6zks429Cd-9" value="manage staff members" style="text;html=1;strokeColor=none;fillColor=none;align=center;verticalAlign=middle;whiteSpace=wrap;rounded=0;rotation=-110;" parent="1" vertex="1">
          <mxGeometry x="240" y="149" width="133.43" height="30" as="geometry" />
        </mxCell>
        <mxCell id="tuyYX0-SlInAl1GrdSbn-1" value="&lt;b&gt;Sttaff memner&lt;/b&gt;" style="rounded=0;whiteSpace=wrap;html=1;fillColor=#f5f5f5;strokeColor=#666666;fontColor=#333333;rotation=0;" vertex="1" parent="1">
          <mxGeometry x="277" y="440" width="163" height="60" as="geometry" />
        </mxCell>
        <mxCell id="tuyYX0-SlInAl1GrdSbn-11" value="" style="endArrow=classic;html=1;rounded=0;entryX=0;entryY=0.5;entryDx=0;entryDy=0;exitX=0.25;exitY=0;exitDx=0;exitDy=0;" edge="1" parent="1" source="tuyYX0-SlInAl1GrdSbn-1" target="JcAfhX5hEeZjc4lIiqUr-1">
          <mxGeometry width="50" height="50" relative="1" as="geometry">
            <mxPoint x="271" y="240" as="sourcePoint" />
            <mxPoint x="334" y="414" as="targetPoint" />
            <Array as="points">
              <mxPoint x="318" y="420" />
              <mxPoint x="240" y="420" />
              <mxPoint x="240" y="260" />
            </Array>
          </mxGeometry>
        </mxCell>
        <mxCell id="tuyYX0-SlInAl1GrdSbn-12" value="manage&lt;div&gt;ticket&lt;/div&gt;" style="edgeLabel;html=1;align=center;verticalAlign=middle;resizable=0;points=[];" vertex="1" connectable="0" parent="tuyYX0-SlInAl1GrdSbn-11">
          <mxGeometry x="0.1205" y="-4" relative="1" as="geometry">
            <mxPoint x="-1" as="offset" />
          </mxGeometry>
        </mxCell>
        <mxCell id="tuyYX0-SlInAl1GrdSbn-13" value="" style="endArrow=classic;html=1;rounded=0;entryX=0.043;entryY=0.725;entryDx=0;entryDy=0;entryPerimeter=0;" edge="1" parent="1" target="JcAfhX5hEeZjc4lIiqUr-1">
          <mxGeometry width="50" height="50" relative="1" as="geometry">
            <mxPoint x="330" y="440" as="sourcePoint" />
            <mxPoint x="367" y="250" as="targetPoint" />
            <Array as="points">
              <mxPoint x="330" y="400" />
              <mxPoint x="270" y="400" />
              <mxPoint x="270" y="280" />
            </Array>
          </mxGeometry>
        </mxCell>
        <mxCell id="tuyYX0-SlInAl1GrdSbn-14" value="resolve&lt;div&gt;ticket&lt;/div&gt;" style="edgeLabel;html=1;align=center;verticalAlign=middle;resizable=0;points=[];" vertex="1" connectable="0" parent="tuyYX0-SlInAl1GrdSbn-13">
          <mxGeometry x="0.1205" y="-4" relative="1" as="geometry">
            <mxPoint x="-1" y="22" as="offset" />
          </mxGeometry>
        </mxCell>
        <mxCell id="tuyYX0-SlInAl1GrdSbn-15" value="" style="endArrow=classic;html=1;rounded=0;entryX=0;entryY=1;entryDx=0;entryDy=0;" edge="1" parent="1" target="JcAfhX5hEeZjc4lIiqUr-1">
          <mxGeometry width="50" height="50" relative="1" as="geometry">
            <mxPoint x="350" y="440" as="sourcePoint" />
            <mxPoint x="362.43" y="283" as="targetPoint" />
            <Array as="points">
              <mxPoint x="350" y="390" />
              <mxPoint x="304" y="390" />
              <mxPoint x="304" y="295" />
            </Array>
          </mxGeometry>
        </mxCell>
        <mxCell id="tuyYX0-SlInAl1GrdSbn-16" value="manage&lt;div&gt;FAQS&lt;/div&gt;" style="edgeLabel;html=1;align=center;verticalAlign=middle;resizable=0;points=[];" vertex="1" connectable="0" parent="tuyYX0-SlInAl1GrdSbn-15">
          <mxGeometry x="0.1205" y="-4" relative="1" as="geometry">
            <mxPoint x="-1" y="-13" as="offset" />
          </mxGeometry>
        </mxCell>
        <mxCell id="tuyYX0-SlInAl1GrdSbn-17" value="" style="endArrow=classic;html=1;rounded=0;entryX=0.928;entryY=0.179;entryDx=0;entryDy=0;entryPerimeter=0;" edge="1" parent="1">
          <mxGeometry width="50" height="50" relative="1" as="geometry">
            <mxPoint x="561" y="61.5" as="sourcePoint" />
            <mxPoint x="517.3199999999999" y="227.9000000000001" as="targetPoint" />
            <Array as="points" />
          </mxGeometry>
        </mxCell>
        <mxCell id="tuyYX0-SlInAl1GrdSbn-18" value="manage articles" style="text;html=1;strokeColor=none;fillColor=none;align=center;verticalAlign=middle;whiteSpace=wrap;rounded=0;rotation=-75;" vertex="1" parent="1">
          <mxGeometry x="467.43" y="118.5" width="129" height="34" as="geometry" />
        </mxCell>
        <mxCell id="tuyYX0-SlInAl1GrdSbn-20" value="" style="endArrow=classic;html=1;rounded=0;entryX=0.234;entryY=0.906;entryDx=0;entryDy=0;entryPerimeter=0;" edge="1" parent="1" source="tuyYX0-SlInAl1GrdSbn-1" target="JcAfhX5hEeZjc4lIiqUr-1">
          <mxGeometry width="50" height="50" relative="1" as="geometry">
            <mxPoint x="400" y="280" as="sourcePoint" />
            <mxPoint x="450" y="230" as="targetPoint" />
            <Array as="points">
              <mxPoint x="359" y="340" />
              <mxPoint x="384" y="340" />
            </Array>
          </mxGeometry>
        </mxCell>
        <mxCell id="tuyYX0-SlInAl1GrdSbn-21" value="manage&amp;nbsp;&lt;div&gt;articles&lt;/div&gt;" style="edgeLabel;html=1;align=center;verticalAlign=middle;resizable=0;points=[];" vertex="1" connectable="0" parent="tuyYX0-SlInAl1GrdSbn-20">
          <mxGeometry x="0.1256" y="1" relative="1" as="geometry">
            <mxPoint y="12" as="offset" />
          </mxGeometry>
        </mxCell>
        <mxCell id="tuyYX0-SlInAl1GrdSbn-22" value="" style="endArrow=classic;html=1;rounded=0;entryX=0.335;entryY=0.979;entryDx=0;entryDy=0;entryPerimeter=0;exitX=0.687;exitY=-0.02;exitDx=0;exitDy=0;exitPerimeter=0;" edge="1" parent="1" source="tuyYX0-SlInAl1GrdSbn-1" target="JcAfhX5hEeZjc4lIiqUr-1">
          <mxGeometry width="50" height="50" relative="1" as="geometry">
            <mxPoint x="369" y="450" as="sourcePoint" />
            <mxPoint x="394" y="311" as="targetPoint" />
            <Array as="points">
              <mxPoint x="390" y="370" />
              <mxPoint x="404" y="370" />
            </Array>
          </mxGeometry>
        </mxCell>
        <mxCell id="tuyYX0-SlInAl1GrdSbn-23" value="manage&amp;nbsp;&lt;div&gt;articles&lt;/div&gt;" style="edgeLabel;html=1;align=center;verticalAlign=middle;resizable=0;points=[];" vertex="1" connectable="0" parent="tuyYX0-SlInAl1GrdSbn-22">
          <mxGeometry x="0.1256" y="1" relative="1" as="geometry">
            <mxPoint x="-5" y="44" as="offset" />
          </mxGeometry>
        </mxCell>
        <mxCell id="tuyYX0-SlInAl1GrdSbn-26" value="" style="endArrow=classic;html=1;rounded=0;entryX=0.43;entryY=1.043;entryDx=0;entryDy=0;entryPerimeter=0;exitX=0.888;exitY=-0.004;exitDx=0;exitDy=0;exitPerimeter=0;" edge="1" parent="1" source="tuyYX0-SlInAl1GrdSbn-1" target="JcAfhX5hEeZjc4lIiqUr-1">
          <mxGeometry width="50" height="50" relative="1" as="geometry">
            <mxPoint x="409" y="450" as="sourcePoint" />
            <mxPoint x="414" y="318" as="targetPoint" />
            <Array as="points" />
          </mxGeometry>
        </mxCell>
        <mxCell id="tuyYX0-SlInAl1GrdSbn-27" value="login" style="edgeLabel;html=1;align=center;verticalAlign=middle;resizable=0;points=[];" vertex="1" connectable="0" parent="tuyYX0-SlInAl1GrdSbn-26">
          <mxGeometry x="0.1256" y="1" relative="1" as="geometry">
            <mxPoint x="-1" y="15" as="offset" />
          </mxGeometry>
        </mxCell>
      </root>
    </mxGraphModel>
  </diagram>
</mxfile>
